# xmcd
#
# Track frame offsets: 
#        150
#        19927
#        48563
#        68252
#        97056
#        117976
#        132680
#        156282
#        172618
#        185916
#        215516
#        230443
#        246325
#        269049
#        287856
#
# Disc length: 4145 seconds
#
# Revision: 0
# Processed by: cddbd v1.5.2PL0 Copyright (c) Steve Scherf et al.
# Submitted via: ExactAudioCopy v1.0b1
#
DISCID=e7102f0f
DTITLE=Various Artist - Four Important Musical Instruments CD1 Dizi
DYEAR=2005
DGENRE=Classical
TTITLE0=Journey to Gu Su
TTITLE1=Pastoral Flute
TTITLE2=Sailing Song in Regions of Rivers
TTITLE3=Emotion Expression in Qin District
TTITLE4=Spring Comes to the Date Farm
TTITLE5=Wu Pang Tze
TTITLE6="San Wu Qi"Tune
TTITLE7=Celebration of Harvest
TTITLE8=Joyful Reunion
TTITLE9=Autumn Yearning By Dresser
TTITLE10=Morning in Miao Village
TTITLE11=Folk Song
TTITLE12=Pastoral Song
TTITLE13=Yellow Bird Shows its Wings
TTITLE14=Orchid Greeting Spring
EXTD=
EXTT0=
EXTT1=
EXTT2=
EXTT3=
EXTT4=
EXTT5=
EXTT6=
EXTT7=
EXTT8=
EXTT9=
EXTT10=
EXTT11=
EXTT12=
EXTT13=
EXTT14=
PLAYORDER=
